<svg width="858" height="900" viewBox="0 0 858 900" fill="none" xmlns="http://www.w3.org/2000/svg">
<rect x="62" width="796" height="900" fill="#005DCC"/>
<path d="M81.0876 227.972H177.874V434.803H81.0876V227.972ZM165.115 315.806H292.347V477.283H165.115V315.806ZM705.97 303.307V258.027H594.008V441.936H700.873V524H873.088V303.307H705.97ZM378.152 420.611H475.13V209H378.152V420.611Z" fill="#4A9FF4"/>
<path d="M845.859 294.736V423.349H796.936V281.132L733.334 264.774V343.322H665.965V196H567.206V307.34H524.761V238.864H419.395V326.081H353.931V214.092L239.949 234.907V387.335H205.909V294.736H110.202V339.77H62.0876V577H927.088V366.062V294.736H845.859Z" fill="#4391EF"/>
<path d="M342.335 241.849H331.13V249.367H342.335V241.849Z" fill="#53A7F4"/>
<path d="M342.335 256.331H331.13V263.849H342.335V256.331Z" fill="#53A7F4"/>
<path d="M342.335 285.295H331.13V292.812H342.335V285.295Z" fill="#53A7F4"/>
<path d="M322.944 227.367H311.739V234.885H322.944V227.367Z" fill="#53A7F4"/>
<path d="M322.944 241.849H311.739V249.367H322.944V241.849Z" fill="#53A7F4"/>
<path d="M322.944 270.813H311.739V278.331H322.944V270.813Z" fill="#53A7F4"/>
<path d="M784.636 290.941H773.431V298.459H784.636V290.941Z" fill="#53A7F4"/>
<path d="M784.636 319.299H773.431V326.817H784.636V319.299Z" fill="#53A7F4"/>
<path d="M784.636 333.473H773.431V340.99H784.636V333.473Z" fill="#53A7F4"/>
<path d="M784.636 347.647H773.431V355.164H784.636V347.647Z" fill="#53A7F4"/>
<path d="M784.636 376.004H773.431V383.522H784.636V376.004Z" fill="#53A7F4"/>
<path d="M762.481 290.941H751.276V298.459H762.481V290.941Z" fill="#53A7F4"/>
<path d="M762.481 305.115H751.276V312.632H762.481V305.115Z" fill="#53A7F4"/>
<path d="M762.481 347.647H751.276V355.164H762.481V347.647Z" fill="#53A7F4"/>
<path d="M322.944 285.295H311.739V292.812H322.944V285.295Z" fill="#53A7F4"/>
<path d="M322.944 299.777H311.739V307.295H322.944V299.777Z" fill="#53A7F4"/>
<path d="M303.542 241.849H292.337V249.367H303.542V241.849Z" fill="#53A7F4"/>
<path d="M303.542 270.813H292.337V278.331H303.542V270.813Z" fill="#53A7F4"/>
<path d="M303.542 285.295H292.337V292.812H303.542V285.295Z" fill="#53A7F4"/>
<path d="M632.241 209.025H620.557V219.127H632.241V209.025Z" fill="#53A7F4"/>
<path d="M632.241 228.484H620.557V238.585H632.241V228.484Z" fill="#53A7F4"/>
<path d="M632.241 247.931H620.557V258.032H632.241V247.931Z" fill="#53A7F4"/>
<path d="M632.241 267.389H620.557V277.491H632.241V267.389Z" fill="#53A7F4"/>
<path d="M632.241 286.837H620.557V296.938H632.241V286.837Z" fill="#53A7F4"/>
<path d="M612 209.025H600.316V219.127H612V209.025Z" fill="#53A7F4"/>
<path d="M612 228.484H600.316V238.585H612V228.484Z" fill="#53A7F4"/>
<path d="M612 286.837H600.316V296.938H612V286.837Z" fill="#53A7F4"/>
<path d="M591.758 209.025H580.075V219.127H591.758V209.025Z" fill="#53A7F4"/>
<path d="M591.758 247.931H580.075V258.032H591.758V247.931Z" fill="#53A7F4"/>
<path d="M591.758 267.389H580.075V277.491H591.758V267.389Z" fill="#53A7F4"/>
<path d="M591.758 286.837H580.075V296.938H591.758V286.837Z" fill="#53A7F4"/>
<path d="M433.974 249.25H427.234V351.198H433.974V249.25Z" fill="#53A7F4"/>
<path d="M449.888 249.25H443.137V351.198H449.888V249.25Z" fill="#53A7F4"/>
<path d="M187.596 309.565V305.036H142.86V309.565H187.596Z" fill="#53A7F4"/>
<path d="M187.6 320.245V315.715H142.865V320.245H187.6Z" fill="#53A7F4"/>
<path d="M187.595 348.704V344.174H142.86V348.704H187.595Z" fill="#53A7F4"/>
<path d="M187.603 337.228V332.699H142.868V337.228H187.603Z" fill="#53A7F4"/>
<path d="M187.599 359.383V354.854H142.864V359.383H187.599Z" fill="#53A7F4"/>
<path d="M465.771 249.25H459.031V351.198H465.771V249.25Z" fill="#53A7F4"/>
<path d="M481.675 249.25H474.935V351.198H481.675V249.25Z" fill="#53A7F4"/>
<path d="M497.579 249.25H490.839V351.198H497.579V249.25Z" fill="#53A7F4"/>
<path d="M513.482 249.25H506.742V351.198H513.482V249.25Z" fill="#53A7F4"/>
<path d="M920.088 482.574C909.948 472.03 895.844 475.175 885.885 486.124C875.915 497.073 869.464 514.397 864.798 532.137C866.488 523.512 863.374 512.606 857.783 510.815C852.192 509.034 846.4 519.802 849.301 527.584C844.71 511.444 839.97 495.047 832.508 481.859C826.971 472.062 819.669 464.087 811.485 461.177C807.744 459.844 804.545 458.736 801.547 463.192C798.848 467.2 797.551 473.49 796.977 479.119C795.043 497.904 797.849 517.808 804.64 533.512C802.026 528.437 798.338 524.77 794.32 523.224C793.172 522.787 791.971 522.52 790.823 522.979C788.464 523.928 786.965 527.819 786.699 531.646C786.434 535.473 787.156 539.29 787.868 542.968C785.849 537.552 783.128 532.819 779.908 529.141C778.186 527.179 775.306 525.911 774.349 528.896C773.966 530.1 774.105 531.529 774.253 532.862C774.721 537.019 775.189 541.177 775.656 545.324C765.442 532.105 752.433 524.429 739.254 523.864C737.213 523.778 735.087 523.885 733.28 525.367C730.411 527.723 728.965 533.139 728.933 538.256C728.901 543.373 730.017 548.32 731.123 553.128C716.647 536.572 697.345 531.092 680.138 538.65C674.356 541.188 668.627 545.335 664.769 552.606C663.44 555.111 662.324 558.075 662.122 561.337C661.708 567.926 665.077 573.704 668.776 576.774C674.749 581.721 681.764 582.03 688.502 581.998C734.534 581.785 780.354 570.9 826.429 573.405C833.635 573.8 841.936 576.849 849.046 575.09C855.572 573.48 861.769 572.393 868.465 571.955C884.918 570.879 901.371 569.717 917.813 568.469" fill="#3A84EF"/>
<path d="M62.0876 482.574C72.2273 472.03 86.3314 475.175 96.2903 486.124C106.26 497.073 112.711 514.397 117.377 532.137C115.687 523.512 118.802 512.606 124.392 510.815C129.983 509.034 135.775 519.802 132.874 527.584C137.465 511.444 142.206 495.047 149.667 481.859C155.204 472.062 162.506 464.087 170.69 461.177C174.431 459.844 177.631 458.736 180.628 463.192C183.327 467.2 184.624 473.49 185.198 479.119C187.132 497.904 184.327 517.808 177.535 533.512C180.15 528.437 183.838 524.77 187.855 523.224C189.003 522.787 190.204 522.52 191.352 522.979C193.712 523.928 195.21 527.819 195.476 531.646C195.742 535.473 195.019 539.29 194.307 542.968C196.326 537.552 199.047 532.819 202.267 529.141C203.989 527.179 206.87 525.911 207.826 528.896C208.209 530.1 208.071 531.529 207.922 532.862C207.454 537.019 206.987 541.177 206.519 545.324C216.733 532.105 229.742 524.429 242.922 523.864C244.962 523.778 247.088 523.885 248.895 525.367C251.765 527.723 253.21 533.139 253.242 538.256C253.274 543.373 252.158 548.32 251.053 553.128C265.529 536.572 284.83 531.092 302.038 538.65C307.82 541.188 313.548 545.335 317.407 552.606C318.735 555.111 319.851 558.075 320.053 561.337C320.468 567.926 317.098 573.704 313.4 576.774C307.426 581.721 300.411 582.03 293.673 581.998C247.641 581.785 201.821 570.9 155.746 573.405C148.54 573.8 140.239 576.849 133.129 575.09C126.603 573.48 120.406 572.393 113.71 571.955C97.2574 570.879 80.8045 569.717 64.3621 568.469" fill="#3A84EF"/>
<path d="M925.088 575H60.0876V900H925.088V575Z" fill="#2C2AA1"/>
<path d="M974.738 608.272C979.2 590.406 979.392 587.923 974.175 570.215C971.658 561.668 967.854 553.131 960.896 546.75C933.083 521.245 890.673 529.232 873.388 552.772C860.417 570.427 855.987 592.762 861.405 613.227C858.101 608.843 853.267 604.891 847.318 604.289C838.606 603.401 830.851 610.279 828.779 617.76C826.708 625.24 828.833 633.069 830.947 640.539C825.529 629.931 812.855 622.144 799.618 622.504C786.38 622.874 773.791 632.171 772.389 643.73C771.252 653.101 774.917 662.219 782.227 670.133C767.874 660.307 749.272 655.69 731.084 656.429C712.896 657.169 697.343 661.786 682.459 670.988C672.824 676.947 659.236 694.634 661.297 704.808C663.294 714.666 677.105 713.282 687.963 716.346C701.285 720.107 714.277 720.815 728.099 721.375C740.284 721.861 752.671 724.925 764.995 726.119C794.996 729.014 825.348 730.208 855.424 727.419C884.586 724.714 915.065 717.392 934.751 698.332C954.341 679.356 959.547 649.932 947.425 626.635" fill="#33E5C5"/>
<path d="M3.4368 608.272C-1.25333 590.418 -1.2164 587.923 3.99982 570.215C6.51764 561.668 10.3209 553.131 17.2794 546.75C45.0922 521.245 87.502 529.232 104.787 552.772C117.758 570.427 122.188 592.762 116.77 613.227C120.074 608.843 124.908 604.891 130.857 604.289C139.569 603.401 147.324 610.279 149.396 617.76C151.467 625.24 149.343 633.069 147.228 640.539C152.646 629.931 165.321 622.145 178.558 622.504C191.795 622.874 204.384 632.171 205.786 643.73C206.923 653.101 203.258 662.219 195.949 670.133C210.301 660.307 228.903 655.69 247.091 656.429C265.279 657.169 280.832 661.786 295.716 670.988C305.351 676.947 318.939 694.634 316.878 704.808C314.881 714.666 301.07 713.282 290.213 716.346C276.891 720.107 263.898 720.815 250.076 721.375C237.891 721.861 225.504 724.925 213.18 726.119C183.179 729.014 152.827 730.208 122.751 727.419C93.5894 724.714 63.1101 717.392 43.4244 698.332C23.8343 679.356 30.7502 626.635 30.7502 626.635" fill="#33E5C5"/>
<g clip-path="url(#clip0_12_3)">
<path d="M162 156.82H221.18C221.18 156.82 225.47 140.1 210.46 147.39C208.74 137.53 203.74 134.28 191.88 145.55C189.44 133.66 168.86 142.24 162 156.82Z" fill="#68BDFC"/>
<path d="M456.5 96.01H485.48C485.48 96.01 487.58 87.82 480.23 91.39C479.39 86.56 476.94 84.97 471.13 90.49C469.94 84.67 459.86 88.87 456.5 96.01Z" fill="#68BDFC"/>
<path d="M653.95 125.16H716.35C716.35 125.16 720.87 107.53 705.05 115.21C703.24 104.81 697.96 101.38 685.45 113.27C682.89 100.75 661.19 109.79 653.95 125.16Z" fill="#68BDFC"/>
</g>
<path d="M532.457 476.616H544.463C546.702 476.616 548.508 478.436 548.508 480.672V488.196C548.508 490.44 546.693 492.251 544.463 492.251H534.747V489.258C531.821 489.258 529.006 488.093 526.937 486.019L525.479 484.557L532.457 476.616Z" fill="#BE653B"/>
<path d="M532.457 476.616L525.479 484.548L495.506 477.568L499.652 466.448L532.457 476.616Z" fill="#BE653B"/>
<path d="M499.652 466.448L501.119 466.899L501.586 478.98L495.506 477.568L499.652 466.448Z" fill="#9A4C28"/>
<path d="M442.259 423.439C446.21 420.328 451.908 420.889 455.189 424.698L486.281 460.863L491.903 462.759L486.68 476.761L483.729 476.123C479.066 475.112 474.809 472.714 471.519 469.246L441.25 437.356C437.426 433.335 437.892 426.874 442.259 423.439Z" fill="#F48116"/>
<path d="M486.51 477.211L486.68 476.769L491.903 462.767L492.42 461.382C492.717 460.591 493.598 460.183 494.387 460.48L499.525 462.41C500.314 462.708 500.721 463.592 500.424 464.383L500.008 465.505L495.125 478.597L494.523 480.212C494.226 481.003 493.344 481.411 492.556 481.114L487.417 479.184C486.62 478.886 486.213 478.002 486.51 477.211Z" fill="#E4E4E5"/>
<path d="M453.222 426.211C450.331 422.844 445.498 421.943 441.597 424.026C441.809 423.822 442.03 423.626 442.267 423.439C446.218 420.328 451.916 420.889 455.198 424.698L486.29 460.863L491.911 462.759L491.072 465.003L484.764 462.869L453.222 426.211Z" fill="#FF9C1A"/>
<path d="M453.078 498.695L517.882 515.987C529.083 518.979 534.314 531.893 528.345 541.865L490.572 605.023L469.535 595.663L499.763 538.031L438.206 525.135C426.302 522.635 419.281 510.223 423.275 498.703H453.078V498.695Z" fill="#0044CC"/>
<path d="M472.266 599.973L473.843 597.576L485.798 602.889L482.983 608.024L469.663 604.275C470.477 602.813 471.341 601.376 472.266 599.973Z" fill="#C15F32"/>
<path d="M475.555 610.311L476.666 613.151L475.182 612.105C474.597 611.688 473.894 611.467 473.173 611.467H466.195C467.212 609.002 468.365 606.605 469.671 604.275L482.991 608.024L482.177 609.495H476.107C475.683 609.495 475.394 609.92 475.555 610.311Z" fill="white"/>
<path d="M490.868 622.553H462.634L463.151 620.555C463.948 617.452 464.974 614.426 466.195 611.476H473.173C473.894 611.476 474.597 611.697 475.182 612.113L476.666 613.159L475.555 610.32C475.403 609.928 475.691 609.503 476.115 609.503H482.186L486.671 613.729C488.706 615.641 491.385 616.713 494.175 616.713H497.236C500.229 616.713 502.84 618.387 504.189 620.861L498.364 621.899C495.879 622.332 493.378 622.553 490.868 622.553Z" fill="#422C4F"/>
<path d="M490.868 622.553C493.378 622.553 495.879 622.332 498.355 621.89L504.18 620.853C504.748 621.899 505.096 623.097 505.147 624.364L496.252 625.172C494.845 625.299 493.437 625.367 492.021 625.367H461.921L462.642 622.553H490.868Z" fill="white"/>
<path d="M473.843 597.576L485.798 602.889L484.501 605.244L471.494 601.181L473.843 597.576Z" fill="#9A4C28"/>
<path d="M553.069 492.871H556.13L564.007 520.799C570.171 542.664 567.67 566.044 557.08 586.082L553.239 587.535L553.069 492.871Z" fill="#077AED"/>
<path d="M564.007 520.807L556.13 492.88H558.996L575.157 553.028C576.615 558.443 581.508 562.209 587.104 562.209C587.528 562.209 587.867 562.549 587.867 562.975V574.452L557.072 586.09C567.67 566.052 570.171 542.664 564.007 520.807Z" fill="#056CE5"/>
<path d="M589.978 677.992C613.739 677.992 633 658.679 633 634.855C633 611.031 613.739 591.718 589.978 591.718C566.218 591.718 546.956 611.031 546.956 634.855C546.956 658.679 566.218 677.992 589.978 677.992Z" fill="#121212"/>
<path d="M589.978 665.92C607.089 665.92 620.96 652.011 620.96 634.855C620.96 617.699 607.089 603.791 589.978 603.791C572.867 603.791 558.996 617.699 558.996 634.855C558.996 652.011 572.867 665.92 589.978 665.92Z" fill="#001B66"/>
<path d="M589.978 660.215C603.947 660.215 615.271 648.861 615.271 634.855C615.271 620.849 603.947 609.495 589.978 609.495C576.01 609.495 564.686 620.849 564.686 634.855C564.686 648.861 576.01 660.215 589.978 660.215Z" fill="#649FCB"/>
<path d="M589.978 609.495C594.752 609.495 599.22 610.821 603.036 613.134C601.281 612.691 599.432 612.445 597.541 612.445C585.196 612.445 575.191 622.477 575.191 634.855C575.191 647.233 585.196 657.265 597.541 657.265C599.441 657.265 601.281 657.027 603.036 656.576C599.229 658.88 594.76 660.215 589.978 660.215C576.005 660.215 564.686 648.857 564.686 634.855C564.677 620.853 576.005 609.495 589.978 609.495Z" fill="#171819" fill-opacity="0.1"/>
<path d="M589.978 646.043C596.141 646.043 601.136 641.034 601.136 634.855C601.136 628.676 596.141 623.667 589.978 623.667C583.816 623.667 578.82 628.676 578.82 634.855C578.82 641.034 583.816 646.043 589.978 646.043Z" fill="#00308D"/>
<path d="M595.313 640.211C598.264 637.253 598.264 632.457 595.313 629.499C592.363 626.54 587.58 626.54 584.63 629.499C581.679 632.457 581.679 637.253 584.63 640.211C587.58 643.169 592.363 643.169 595.313 640.211Z" fill="#8695B8"/>
<path d="M368.976 677.992C392.736 677.992 411.998 658.679 411.998 634.855C411.998 611.031 392.736 591.718 368.976 591.718C345.215 591.718 325.954 611.031 325.954 634.855C325.954 658.679 345.215 677.992 368.976 677.992Z" fill="#121212"/>
<path d="M368.976 665.92C386.087 665.92 399.958 652.011 399.958 634.855C399.958 617.699 386.087 603.791 368.976 603.791C351.865 603.791 337.994 617.699 337.994 634.855C337.994 652.011 351.865 665.92 368.976 665.92Z" fill="#001B66"/>
<path d="M368.976 660.215C382.944 660.215 394.268 648.861 394.268 634.855C394.268 620.849 382.944 609.495 368.976 609.495C355.007 609.495 343.683 620.849 343.683 634.855C343.683 648.861 355.007 660.215 368.976 660.215Z" fill="#649FCB"/>
<path d="M368.976 609.495C373.749 609.495 378.218 610.821 382.033 613.134C380.278 612.691 378.43 612.445 376.539 612.445C364.194 612.445 354.189 622.477 354.189 634.855C354.189 647.233 364.194 657.265 376.539 657.265C378.438 657.265 380.278 657.027 382.033 656.576C378.226 658.88 373.758 660.215 368.976 660.215C355.003 660.215 343.683 648.857 343.683 634.855C343.675 620.853 355.003 609.495 368.976 609.495Z" fill="#171819" fill-opacity="0.1"/>
<path d="M368.976 646.043C375.138 646.043 380.134 641.034 380.134 634.855C380.134 628.676 375.138 623.667 368.976 623.667C362.813 623.667 357.818 628.676 357.818 634.855C357.818 641.034 362.813 646.043 368.976 646.043Z" fill="#00308D"/>
<path d="M374.313 640.209C377.263 637.251 377.263 632.455 374.313 629.497C371.362 626.539 366.579 626.539 363.629 629.497C360.679 632.455 360.679 637.251 363.629 640.209C366.579 643.167 371.362 643.167 374.313 640.209Z" fill="#8695B8"/>
<path d="M587.901 577.725C565.737 578.422 546.787 593.98 540.894 615.403L539.936 618.889L538.893 619.399L540.894 612.139C546.787 590.706 565.745 575.157 587.901 574.46C588.469 574.443 589.045 574.435 589.622 574.435C599.161 574.435 608.309 576.926 616.356 581.584L614.889 584.033C607.207 579.901 598.584 577.699 589.622 577.699C589.045 577.691 588.477 577.699 587.901 577.725Z" fill="white"/>
<path d="M583.856 597.244L539.936 618.889L540.894 615.403C546.787 593.971 565.746 578.422 587.901 577.725C588.469 577.708 589.046 577.699 589.622 577.699C598.584 577.699 607.207 579.901 614.889 584.033L607.004 597.244H583.856Z" fill="#337AE2"/>
<path d="M536.815 622.664H557.343C566.568 622.664 575.42 618.991 581.949 612.445C588.477 605.899 597.329 602.226 606.554 602.226H630.897L623.198 594.507C614.296 585.58 602.222 580.564 589.63 580.564C573.41 580.564 558.318 588.862 549.593 602.575L536.815 622.664Z" fill="#0057D8"/>
<path d="M553.07 492.871L560.946 520.799C567.263 543.192 564.491 567.183 553.239 587.535L549.305 594.651C538.172 614.783 517.026 627.28 494.065 627.28H300.271L307.216 602.013C314.067 577.087 330.049 555.68 351.976 542.078L364.524 534.29H472.334V539.009C472.334 542.146 470.341 544.934 467.373 545.929C455.842 549.823 447.558 560.016 446.083 572.131C443.777 591.03 458.487 607.692 477.48 607.692H493.242C508.352 607.692 522.418 599.948 530.516 587.153L537.824 575.616C545.888 562.89 548.644 547.502 545.506 532.76L537.019 492.871H553.07Z" fill="#04286C"/>
<path d="M364.524 534.291H481.041V520.425H388.13C381.669 520.425 375.479 523.043 370.968 527.676L364.524 534.291Z" fill="#FEFFFD"/>
<path d="M432.271 629.193H484.585C508.233 629.193 530.041 616.313 541.496 595.578L545.43 588.462C557.004 567.523 559.802 543.311 553.307 520.28C551.221 512.867 552.188 504.773 555.969 498.074C556.486 497.156 556.164 495.983 555.249 495.464C554.324 494.946 553.163 495.269 552.646 496.187C548.364 503.779 547.27 512.935 549.636 521.326C555.851 543.379 553.18 566.562 542.098 586.609L538.164 593.725C527.378 613.244 506.851 625.367 484.594 625.367H432.279C431.219 625.367 430.363 626.226 430.363 627.289C430.354 628.343 431.211 629.193 432.271 629.193Z" fill="#FAFDFF"/>
<path d="M430.371 619.773H310.505L312.337 621.61C315.271 624.551 319.247 626.2 323.393 626.2H417.746C422.74 626.2 427.429 623.811 430.371 619.773Z" fill="#056CE5"/>
<path d="M378.023 639.522C392.343 639.522 403.951 627.883 403.951 613.524C403.951 599.166 392.343 587.527 378.023 587.527C363.703 587.527 352.094 599.166 352.094 613.524C352.094 627.883 363.703 639.522 378.023 639.522Z" fill="#FAFDFF"/>
<path d="M358.08 613.524C358.08 602.498 367.026 593.529 378.023 593.529C389.02 593.529 397.965 602.498 397.965 613.524C397.965 624.551 389.02 633.52 378.023 633.52C367.026 633.52 358.08 624.551 358.08 613.524ZM360.2 613.524C360.2 623.378 368.196 631.395 378.023 631.395C387.85 631.395 395.845 623.378 395.845 613.524C395.845 603.671 387.85 595.654 378.023 595.654C368.196 595.663 360.2 603.671 360.2 613.524Z" fill="#01328E"/>
<path d="M365.076 614.587H390.97C391.555 614.587 392.03 614.111 392.03 613.524C392.03 612.938 391.555 612.462 390.97 612.462H365.076C364.491 612.462 364.016 612.938 364.016 613.524C364.016 614.111 364.491 614.587 365.076 614.587Z" fill="#495375"/>
<path d="M367.305 610.336H388.749C389.334 610.336 389.808 609.86 389.808 609.274C389.808 608.687 389.334 608.211 388.749 608.211H367.305C366.72 608.211 366.246 608.687 366.246 609.274C366.246 609.86 366.72 610.336 367.305 610.336Z" fill="#495375"/>
<path d="M370.299 606.086H385.747C386.332 606.086 386.807 605.61 386.807 605.023C386.807 604.436 386.332 603.96 385.747 603.96H370.299C369.714 603.96 369.239 604.436 369.239 605.023C369.239 605.601 369.714 606.086 370.299 606.086Z" fill="#495375"/>
<path d="M373.86 601.826H382.186C382.771 601.826 383.246 601.35 383.246 600.764C383.246 600.177 382.771 599.701 382.186 599.701H373.86C373.275 599.701 372.8 600.177 372.8 600.764C372.8 601.35 373.275 601.826 373.86 601.826Z" fill="#495375"/>
<path d="M367.305 618.846H388.749C389.334 618.846 389.808 618.37 389.808 617.784C389.808 617.197 389.334 616.721 388.749 616.721H367.305C366.72 616.721 366.246 617.197 366.246 617.784C366.246 618.37 366.72 618.846 367.305 618.846Z" fill="#495375"/>
<path d="M370.299 623.097H385.747C386.332 623.097 386.807 622.621 386.807 622.034C386.807 621.448 386.332 620.972 385.747 620.972H370.299C369.714 620.972 369.239 621.448 369.239 622.034C369.239 622.621 369.714 623.097 370.299 623.097Z" fill="#01328E"/>
<path d="M373.86 627.348H382.186C382.771 627.348 383.246 626.872 383.246 626.285C383.246 625.699 382.771 625.222 382.186 625.222H373.86C373.275 625.222 372.8 625.699 372.8 626.285C372.8 626.872 373.275 627.348 373.86 627.348Z" fill="#01328E"/>
<path d="M350.042 557.219C362.379 549.704 376.539 545.725 390.97 545.725H395.812C420.4 545.725 441.25 565.891 441.233 590.545C441.225 601.716 437.129 611.926 430.372 619.765H396.558H362.744H310.497L315.093 603.374C320.494 584.109 332.983 567.616 350.042 557.219Z" fill="#077AED"/>
<path d="M356.953 573.967C365.983 568.467 376.352 565.551 386.926 565.551H390.47C408.479 565.551 423.741 580.318 423.733 598.375C423.724 606.553 420.731 614.035 415.779 619.773H391.021H366.263H328.006L331.372 607.769C335.323 593.657 344.463 581.576 356.953 573.967Z" fill="#0057D8"/>
<path d="M356.41 613.151H396.761C397.397 613.151 397.906 612.632 397.906 612.003C397.906 611.374 397.389 610.855 396.761 610.855H356.41C355.774 610.855 355.265 611.374 355.265 612.003C355.265 612.632 355.774 613.151 356.41 613.151Z" fill="white"/>
<path d="M357.648 608.594H397.999C398.635 608.594 399.144 608.075 399.144 607.446C399.144 606.808 398.627 606.298 397.999 606.298H357.648C357.012 606.298 356.503 606.817 356.503 607.446C356.503 608.084 357.012 608.594 357.648 608.594Z" fill="white"/>
<path d="M358.894 604.045H399.245C399.881 604.045 400.39 603.527 400.39 602.898C400.39 602.26 399.873 601.75 399.245 601.75H358.894C358.258 601.75 357.75 602.269 357.75 602.898C357.741 603.527 358.258 604.045 358.894 604.045Z" fill="white"/>
<path d="M360.132 599.489H400.483C401.119 599.489 401.628 598.97 401.628 598.341C401.628 597.712 401.111 597.193 400.483 597.193H360.132C359.496 597.193 358.988 597.712 358.988 598.341C358.988 598.97 359.505 599.489 360.132 599.489Z" fill="white"/>
<path d="M361.379 594.932H401.73C402.366 594.932 402.874 594.413 402.874 593.784C402.874 593.147 402.357 592.636 401.73 592.636H361.379C360.743 592.636 360.234 593.155 360.234 593.784C360.234 594.413 360.743 594.932 361.379 594.932Z" fill="white"/>
<path d="M472.334 534.291H364.524C366.907 536.679 370.146 538.031 373.521 538.031H462.354C466.017 538.023 469.561 536.696 472.334 534.291Z" fill="#908B91"/>
<path d="M537.011 492.871H559.005H569.137V472.229H562.159C556.173 472.229 550.263 473.547 544.837 476.081L539.673 478.495C536.358 480.042 534.62 483.749 535.552 487.303L537.011 492.871Z" fill="#056CE5"/>
<path d="M572.503 472.229H569.129V492.871H572.503V472.229Z" fill="#FCFFFD"/>
<path d="M574.233 472.229H572.512V492.871H574.233V472.229Z" fill="#FF9717"/>
<path d="M313.744 531.332C313.295 530.881 313.295 530.15 313.744 529.708C314.194 529.257 314.914 529.257 315.364 529.708L324.97 539.34H321.723L313.744 531.332Z" fill="#C7D2D7"/>
<path d="M324.97 539.34L340.538 554.949C340.987 555.4 340.987 556.122 340.538 556.573C340.317 556.794 340.02 556.913 339.724 556.913C339.427 556.913 339.139 556.802 338.91 556.573L321.723 539.34H324.97Z" fill="white"/>
<path d="M371.969 543.719H436.629C437.689 543.719 438.545 542.86 438.545 541.797C438.545 540.735 437.689 539.876 436.629 539.876H371.969C367.348 539.876 363.007 538.074 359.742 534.801C355.757 530.805 350.449 528.603 344.811 528.603H281.915C280.855 528.603 279.998 529.462 279.998 530.524C279.998 531.587 280.855 532.446 281.915 532.446H344.811C349.432 532.446 353.773 534.248 357.038 537.521C361.023 541.508 366.33 543.719 371.969 543.719Z" fill="white"/>
<path d="M553.07 492.871H537.01L537.375 494.614H553.561L553.07 492.871Z" fill="#077AED"/>
<path d="M254.631 528.597L367.697 528.597L367.697 444.747L254.631 444.747L254.631 528.597Z" fill="#F0BF6C"/>
<path d="M251.401 444.746L370.936 444.746L370.936 431.067L251.401 431.067L251.401 444.746Z" fill="#F0BF6C"/>
<path d="M254.631 451.394L367.697 451.394L367.697 444.746L254.631 444.746L254.631 451.394Z" fill="#EBA25D"/>
<path d="M353.595 461.441L354.104 463.601H311.167L295.786 461.441H353.595Z" fill="#CC6164"/>
<path d="M352.824 458.041L353.332 460.208H278.048L262.667 458.041H352.824Z" fill="#CC6164"/>
<path d="M353.595 507.842L354.104 510.002H311.167L295.786 507.842H353.595Z" fill="#CC6164"/>
<path d="M352.824 504.442L353.332 506.601H278.048L262.667 504.442H352.824Z" fill="#CC6164"/>
<path d="M453.078 498.695L507.122 514.89C519.078 518.469 524.462 532.395 518.043 543.123L481.016 605.023L459.98 595.663L490.207 538.031L428.65 525.134C416.746 522.635 409.725 510.223 413.719 498.703H453.078V498.695Z" fill="#0159D7"/>
<path d="M462.719 599.973L464.296 597.576L476.251 602.889L473.436 608.024L460.115 604.275C460.929 602.813 461.794 601.376 462.719 599.973Z" fill="#C15F32"/>
<path d="M466 610.311L467.111 613.15L465.627 612.105C465.042 611.688 464.338 611.467 463.617 611.467H456.639C457.657 609.002 458.81 606.604 460.116 604.275L473.436 608.024L472.63 609.495H466.559C466.136 609.495 465.847 609.92 466 610.311Z" fill="white"/>
<path d="M481.321 622.553H453.086L453.604 620.555C454.401 617.452 455.427 614.426 456.648 611.476H463.626C464.346 611.476 465.05 611.697 465.635 612.113L467.119 613.159L466.008 610.32C465.856 609.928 466.144 609.503 466.568 609.503H472.639L477.124 613.729C479.159 615.641 481.838 616.713 484.628 616.713H487.689C490.682 616.713 493.293 618.387 494.641 620.861L488.816 621.899C486.332 622.332 483.831 622.553 481.321 622.553Z" fill="#FB8F13"/>
<path d="M481.321 622.553C483.831 622.553 486.332 622.332 488.808 621.89L494.633 620.853C495.201 621.898 495.549 623.097 495.6 624.364L486.705 625.172C485.298 625.299 483.89 625.367 482.474 625.367H452.374L453.095 622.553H481.321Z" fill="white"/>
<path d="M464.296 597.576L476.251 602.889L474.954 605.244L461.938 601.18L464.296 597.576Z" fill="#9A4C28"/>
<path d="M465.076 402.815L466.712 393.505C467.263 390.394 469.959 388.115 473.114 388.115H482.423L481.592 392.536C480.99 395.733 481.05 399.023 481.762 402.202L482.169 404.005C482.339 404.77 481.762 405.501 480.982 405.501H479.1C476.692 414.224 466.119 417.947 458.776 412.285L447.228 403.393L453.358 407.686C457.86 410.849 464.118 408.247 465.076 402.815Z" fill="#BE653B"/>
<path d="M483.025 384.936L482.423 388.124H473.114C469.959 388.124 467.255 390.394 466.712 393.514L465.076 402.823C464.118 408.256 457.869 410.857 453.358 407.695L447.228 403.401V384.936H483.025Z" fill="#9A4C28"/>
<path d="M447.219 403.401L458.776 412.294L457.233 416.714L447.219 403.401Z" fill="#422C4F"/>
<path d="M439.139 415.686L447.219 403.401L457.233 416.714L454.613 424.255L439.139 415.686Z" fill="#C15F32"/>
<path d="M475.479 395.469C475.301 396.532 475.623 397.476 476.2 397.569C476.776 397.663 477.378 396.881 477.557 395.809C477.735 394.747 477.412 393.803 476.836 393.709C476.259 393.616 475.657 394.398 475.479 395.469Z" fill="#422C4F"/>
<path d="M478.218 391.72C477.26 391.176 476.183 391.253 475.276 391.856C474.377 392.451 473.546 391.006 474.436 390.411C475.835 389.484 477.616 389.45 479.066 390.275C479.99 390.802 479.151 392.247 478.218 391.72Z" fill="#422C4F"/>
<path d="M475.954 401.973L474.089 402.619C471.359 403.563 468.399 403.656 465.618 402.874L460.963 401.556L462.057 399.372L465.618 400.366C468.408 401.14 471.359 401.055 474.089 400.111L475.954 399.465C477.607 398.896 479.295 398.453 481.016 398.156L481.686 398.037L482.296 400.468L481.016 400.664C479.295 400.961 477.599 401.403 475.954 401.973Z" fill="white"/>
<path d="M460.955 401.556L465.61 402.874C468.399 403.648 471.35 403.563 474.08 402.619L475.946 401.973C477.599 401.403 479.286 400.961 481.007 400.664L482.288 400.468L482.491 401.267C482.839 402.662 482.763 404.124 482.279 405.467L481.236 408.358C479.405 413.425 474.725 416.91 469.357 417.208C466.017 417.395 462.718 416.315 460.124 414.19L456.241 411.01L460.955 401.556Z" fill="#81D3CF"/>
<path opacity="0.3" d="M465.508 400.341L465.076 402.823C464.38 406.802 460.836 409.25 457.224 409.038L462.049 399.372L465.508 400.341Z" fill="#422C4F"/>
<path d="M458.776 405.442L462.303 415.524C462.422 415.856 462.15 416.196 461.794 416.154C459.157 415.839 456.826 414.292 455.494 411.988L451.018 404.209L458.776 405.442Z" fill="#454F6B"/>
<path d="M462.219 390.037L460.277 401.08C459.946 402.968 457.988 404.09 456.199 403.427L437.045 396.319V382.573C437.053 368.452 448.466 357 462.549 357C476.378 357 487.621 368.035 488.028 381.799H472.003C467.187 381.799 463.058 385.276 462.219 390.037Z" fill="#DF4268"/>
<path d="M446.71 377.761C447.948 377.761 449.152 377.089 449.763 375.907C452.264 371.104 457.165 368.12 462.549 368.12C464.448 368.12 465.991 366.573 465.991 364.668C465.991 362.764 464.448 361.217 462.549 361.217C454.596 361.217 447.355 365.621 443.666 372.711C442.785 374.403 443.438 376.486 445.125 377.37C445.634 377.633 446.176 377.761 446.71 377.761Z" fill="white"/>
<path d="M473.08 371.529C474.14 371.529 475.191 371.036 475.861 370.118C476.98 368.579 476.649 366.42 475.115 365.298L474.953 365.179C473.41 364.065 471.257 364.422 470.154 365.978C469.044 367.525 469.4 369.684 470.943 370.79L471.053 370.866C471.664 371.317 472.376 371.529 473.08 371.529Z" fill="white"/>
<path d="M456.198 403.427C457.987 404.09 459.946 402.968 460.277 401.08L462.218 390.037C463.058 385.276 467.187 381.799 472.011 381.799H488.036C488.045 382.054 488.053 382.309 488.053 382.572V384.936H472.859C469.145 384.936 465.974 387.605 465.33 391.27L463.397 402.228C462.71 406.139 458.547 408.375 454.909 406.776L438.867 399.72C437.757 399.227 437.036 398.13 437.036 396.915V396.311L456.198 403.427Z" fill="#A34262"/>
<path d="M457.767 492.795L453.078 472.23L459.81 435.248C460.616 430.844 458.521 426.423 454.613 424.256L439.139 415.686C437.112 414.564 434.602 414.819 432.847 416.332C420.095 427.291 412.116 442.806 410.616 459.579L407.699 492.072C407.377 495.626 410.175 498.695 413.736 498.695H453.086C456.173 498.695 458.462 495.813 457.767 492.795Z" fill="#FF9C1A"/>
<path d="M434.433 431.057L434.306 431.558C432.678 437.841 433.873 444.523 437.57 449.853L453.086 472.229L456.241 454.895L434.433 431.057Z" fill="#F48116"/>
<path d="M456.063 420.081L460.319 422.283L456.063 426.891L454.613 424.256L456.063 420.081Z" fill="#D4E9FF"/>
<path d="M460.319 422.283L461.286 430.147L456.902 425.981L460.319 422.283Z" fill="white"/>
<path d="M436.629 414.989L441.14 411.002L457.233 419.826L455.037 429.152L436.629 414.989Z" fill="white"/>
<path d="M527.497 480.459H539.503C541.742 480.459 543.548 482.278 543.548 484.514V492.038C543.548 494.282 541.733 496.093 539.503 496.093H529.786V493.101C526.861 493.101 524.046 491.936 521.977 489.862L520.519 488.399L527.497 480.459Z" fill="#C15F32"/>
<path d="M527.497 480.459L520.519 488.399L490.546 481.411L494.692 470.291L527.497 480.459Z" fill="#C15F32"/>
<path d="M494.692 470.291L496.151 470.75L496.625 482.831L490.546 481.411L494.692 470.291Z" fill="#9A4C28"/>
<path d="M437.299 427.291C441.25 424.179 446.948 424.741 450.229 428.549L481.321 464.715L486.943 466.61L481.72 480.612L478.769 479.975C474.106 478.963 469.849 476.566 466.559 473.097L436.29 441.208C432.466 437.178 432.932 430.726 437.299 427.291Z" fill="#FF9C1A"/>
<path d="M481.55 481.062L481.72 480.62L486.943 466.618L487.46 465.233C487.757 464.442 488.638 464.034 489.427 464.332L494.565 466.261C495.354 466.559 495.761 467.443 495.464 468.234L495.048 469.356L490.165 482.448L489.563 484.064C489.266 484.854 488.384 485.262 487.595 484.965L482.457 483.035C481.66 482.737 481.253 481.853 481.55 481.062Z" fill="white"/>
<path d="M448.262 430.053C445.371 426.687 440.538 425.786 436.637 427.869C436.849 427.665 437.07 427.469 437.307 427.282C441.258 424.17 446.956 424.731 450.238 428.54L481.33 464.706L486.951 466.601L486.112 468.846L479.803 466.712L448.262 430.053Z" fill="#F48114"/>
<path d="M525.844 493.084C524.928 491.409 522.842 490.797 521.172 491.715L521.163 491.723C521.231 491.681 521.291 491.621 521.367 491.587L529.066 487.362C530.736 486.444 532.822 487.056 533.738 488.731C534.653 490.406 534.043 492.497 532.373 493.415L524.691 497.64C526.183 496.663 526.717 494.682 525.844 493.084Z" fill="#422C4F"/>
<path d="M523.02 498.065C521.808 498.065 520.621 497.419 520.002 496.272C519.128 494.673 519.663 492.701 521.163 491.723L521.172 491.715C522.842 490.797 524.928 491.409 525.844 493.084C526.717 494.682 526.183 496.654 524.682 497.632L524.674 497.64C524.148 497.929 523.58 498.065 523.02 498.065Z" fill="#495375"/>
<path d="M343.895 371.529H469.468V369.047H343.895V371.529Z" fill="url(#paint0_linear_12_3)"/>
<path d="M329.057 376.469H454.63V373.986H329.057V376.469Z" fill="url(#paint1_linear_12_3)"/>
<path d="M431.567 564.318H557.148V561.844H431.567V564.318Z" fill="url(#paint2_linear_12_3)"/>
<path d="M416.729 569.257H542.31V566.783H416.729V569.257Z" fill="url(#paint3_linear_12_3)"/>
<path d="M327.421 430.394H452.993V427.92H327.421V430.394Z" fill="url(#paint4_linear_12_3)"/>
<path d="M273.699 425.497H446.032V423.014H273.699V425.497Z" fill="url(#paint5_linear_12_3)"/>
<path d="M292.946 420.081H465.279V417.599H292.946V420.081Z" fill="url(#paint6_linear_12_3)"/>
<path d="M415.389 488.952H540.97V486.469H415.389V488.952Z" fill="url(#paint7_linear_12_3)"/>
<path d="M361.675 484.046H534.009V481.573H361.675V484.046Z" fill="url(#paint8_linear_12_3)"/>
<path d="M380.923 478.64H553.256V476.157H380.923V478.64Z" fill="url(#paint9_linear_12_3)"/>
<path d="M217.212 563.306H342.793V560.824H217.212V563.306Z" fill="url(#paint10_linear_12_3)"/>
<path d="M200 558.401H372.333V555.927H200V558.401Z" fill="url(#paint11_linear_12_3)"/>
<path d="M219.247 552.985H391.581V550.511H219.247V552.985Z" fill="url(#paint12_linear_12_3)"/>
<defs>
<linearGradient id="paint0_linear_12_3" x1="469.472" y1="370.29" x2="343.892" y2="370.29" gradientUnits="userSpaceOnUse">
<stop stop-color="#7FCBD0" stop-opacity="0"/>
<stop offset="0.5443" stop-color="#7FCBD0"/>
<stop offset="0.9884" stop-color="#7FCBD0" stop-opacity="0"/>
</linearGradient>
<linearGradient id="paint1_linear_12_3" x1="454.633" y1="375.23" x2="329.053" y2="375.23" gradientUnits="userSpaceOnUse">
<stop stop-color="#7FCBD0" stop-opacity="0"/>
<stop offset="0.5443" stop-color="#7FCBD0"/>
<stop offset="0.9884" stop-color="#7FCBD0" stop-opacity="0"/>
</linearGradient>
<linearGradient id="paint2_linear_12_3" x1="557.147" y1="563.082" x2="431.567" y2="563.082" gradientUnits="userSpaceOnUse">
<stop stop-color="#7FCBD0" stop-opacity="0"/>
<stop offset="0.5443" stop-color="#7FCBD0"/>
<stop offset="0.9884" stop-color="#7FCBD0" stop-opacity="0"/>
</linearGradient>
<linearGradient id="paint3_linear_12_3" x1="542.309" y1="568.021" x2="416.729" y2="568.021" gradientUnits="userSpaceOnUse">
<stop stop-color="#7FCBD0" stop-opacity="0"/>
<stop offset="0.5443" stop-color="#7FCBD0"/>
<stop offset="0.9884" stop-color="#7FCBD0" stop-opacity="0"/>
</linearGradient>
<linearGradient id="paint4_linear_12_3" x1="452.996" y1="429.156" x2="327.417" y2="429.156" gradientUnits="userSpaceOnUse">
<stop stop-color="#7FCBD0" stop-opacity="0"/>
<stop offset="0.5443" stop-color="#7FCBD0"/>
<stop offset="0.9884" stop-color="#7FCBD0" stop-opacity="0"/>
</linearGradient>
<linearGradient id="paint5_linear_12_3" x1="446.036" y1="424.255" x2="273.701" y2="424.255" gradientUnits="userSpaceOnUse">
<stop stop-color="#7FCBD0" stop-opacity="0"/>
<stop offset="0.5443" stop-color="#7FCBD0"/>
<stop offset="0.9884" stop-color="#7FCBD0" stop-opacity="0"/>
</linearGradient>
<linearGradient id="paint6_linear_12_3" x1="465.28" y1="418.84" x2="292.945" y2="418.84" gradientUnits="userSpaceOnUse">
<stop stop-color="#7FCBD0" stop-opacity="0"/>
<stop offset="0.5443" stop-color="#7FCBD0"/>
<stop offset="0.9884" stop-color="#7FCBD0" stop-opacity="0"/>
</linearGradient>
<linearGradient id="paint7_linear_12_3" x1="540.972" y1="487.711" x2="415.392" y2="487.711" gradientUnits="userSpaceOnUse">
<stop stop-color="#7FCBD0" stop-opacity="0"/>
<stop offset="0.5443" stop-color="#7FCBD0"/>
<stop offset="0.9884" stop-color="#7FCBD0" stop-opacity="0"/>
</linearGradient>
<linearGradient id="paint8_linear_12_3" x1="534.012" y1="482.81" x2="361.677" y2="482.81" gradientUnits="userSpaceOnUse">
<stop stop-color="#7FCBD0" stop-opacity="0"/>
<stop offset="0.5443" stop-color="#7FCBD0"/>
<stop offset="0.9884" stop-color="#7FCBD0" stop-opacity="0"/>
</linearGradient>
<linearGradient id="paint9_linear_12_3" x1="553.256" y1="477.395" x2="380.921" y2="477.395" gradientUnits="userSpaceOnUse">
<stop stop-color="#7FCBD0" stop-opacity="0"/>
<stop offset="0.5443" stop-color="#7FCBD0"/>
<stop offset="0.9884" stop-color="#7FCBD0" stop-opacity="0"/>
</linearGradient>
<linearGradient id="paint10_linear_12_3" x1="342.794" y1="562.065" x2="217.214" y2="562.065" gradientUnits="userSpaceOnUse">
<stop stop-color="#7FCBD0" stop-opacity="0"/>
<stop offset="0.5443" stop-color="#7FCBD0"/>
<stop offset="0.9884" stop-color="#7FCBD0" stop-opacity="0"/>
</linearGradient>
<linearGradient id="paint11_linear_12_3" x1="372.335" y1="557.164" x2="200" y2="557.164" gradientUnits="userSpaceOnUse">
<stop stop-color="#7FCBD0" stop-opacity="0"/>
<stop offset="0.5443" stop-color="#7FCBD0"/>
<stop offset="0.9884" stop-color="#7FCBD0" stop-opacity="0"/>
</linearGradient>
<linearGradient id="paint12_linear_12_3" x1="391.579" y1="551.749" x2="219.244" y2="551.749" gradientUnits="userSpaceOnUse">
<stop stop-color="#7FCBD0" stop-opacity="0"/>
<stop offset="0.5443" stop-color="#7FCBD0"/>
<stop offset="0.9884" stop-color="#7FCBD0" stop-opacity="0"/>
</linearGradient>
<clipPath id="clip0_12_3">
<rect width="554.95" height="69.82" fill="white" transform="translate(162 87)"/>
</clipPath>
</defs>
</svg>
