<svg width="58" height="58" viewBox="0 0 58 58" fill="none" xmlns="http://www.w3.org/2000/svg">
<path d="M56.3464 29.0425C56.3464 32.3031 55.0065 35.251 52.8625 37.395C50.7185 39.539 47.7706 40.8789 44.51 40.8789H40.8028V38.6903C41.3388 38.333 41.8301 37.8863 42.3214 37.4397C44.4654 35.2957 45.8053 32.3478 45.8053 29.0872C45.8053 25.1119 43.84 21.5833 40.8474 19.4394V17.2508H44.5547C51.0312 17.2061 56.3464 22.5213 56.3464 29.0425Z" fill="#00CCEB"/>
<path d="M45.7602 29.0423C45.7602 32.3029 44.4202 35.2508 42.2762 37.3948C41.8296 37.8415 41.2936 38.2881 40.7576 38.6454V33.9109V24.0844V19.3499C43.7949 21.5385 45.7602 25.0671 45.7602 29.0423Z" fill="#08FFFF"/>
<path d="M40.8024 40.8788V46.5513C40.8024 52.5365 35.9339 57.4051 29.9487 57.4051H28.0281C22.0428 57.4051 17.1743 52.5365 17.1743 46.5513V40.8788H19.6309C21.5962 43.2907 24.6335 44.8094 27.9834 44.8094H29.904C33.2539 44.8094 36.2912 43.2907 38.2565 40.8788H40.8024Z" fill="#A936A3"/>
<path d="M40.8025 38.6903V40.8789H38.3012C38.6139 40.4769 38.9266 40.0749 39.1946 39.6283C39.7305 39.3603 40.2665 39.0476 40.8025 38.6903Z" fill="#32096D"/>
<path d="M40.8025 33.9557V38.6903C40.3112 39.0476 39.7752 39.3602 39.1946 39.6729C40.2219 37.9756 40.8025 36.055 40.8025 33.9557Z" fill="#32096D"/>
<path d="M40.8027 24.1291V33.9556C40.8027 36.0549 40.222 37.9755 39.1947 39.6281C37.6314 40.4321 35.8448 40.8788 33.9242 40.8788H24.0084C22.1324 40.8788 20.3458 40.4321 18.7378 39.6281C17.7105 37.9755 17.1299 36.0102 17.1299 33.9556V24.1291C17.1299 22.0298 17.7105 20.1092 18.7378 18.4566C20.3011 17.6526 22.0877 17.2059 24.0084 17.2059H33.9242C35.8001 17.2059 37.5868 17.6526 39.1947 18.4566C40.222 20.1092 40.8027 22.0298 40.8027 24.1291Z" fill="#32096D"/>
<path d="M40.8025 19.3945V24.1291C40.8025 22.0298 40.2219 20.1092 39.1946 18.4565C39.7306 18.7245 40.2666 19.0372 40.8025 19.3945Z" fill="#32096D"/>
<path d="M40.8025 17.2059V19.3945C40.3112 19.0372 39.7752 18.7246 39.1946 18.4119C38.9266 17.9652 38.6586 17.5632 38.3012 17.1613H40.8025V17.2059Z" fill="#32096D"/>
<path d="M40.8024 11.5335V17.2507H38.3012C36.3359 14.8387 33.2986 13.3201 29.9487 13.3201H28.0281C24.6335 13.3201 21.6409 14.8387 19.6756 17.2507H17.1743V11.5335C17.1743 5.54825 22.0428 0.679689 28.0281 0.679689H29.9487C35.9339 0.679689 40.8024 5.50359 40.8024 11.5335Z" fill="#FFAF0E"/>
<path d="M38.3014 17.2059C38.614 17.6079 38.9267 18.0099 39.1947 18.4566C37.6314 17.6526 35.8448 17.2059 33.9241 17.2059H38.3014Z" fill="#32096D"/>
<path d="M39.1947 39.6283C38.9267 40.075 38.6587 40.4769 38.3014 40.8789H33.9241C35.8001 40.8789 37.5867 40.4323 39.1947 39.6283Z" fill="#32096D"/>
<path d="M38.3009 17.2061H33.9237H24.0079H19.6306C21.5959 14.7941 24.6332 13.2755 27.9831 13.2755H29.9038C33.2984 13.2755 36.291 14.7941 38.3009 17.2061Z" fill="#FFD710"/>
<path d="M33.9242 40.8788H38.3014C36.3361 43.2907 33.2989 44.8094 29.9489 44.8094H28.0283C24.6337 44.8094 21.6411 43.2907 19.6758 40.8788H24.0531H33.9242Z" fill="#CC4CCC"/>
<path d="M19.6306 17.2059H24.0079C22.1319 17.2059 20.3453 17.6526 18.7373 18.4566C19.0053 18.0099 19.318 17.6079 19.6306 17.2059Z" fill="#32096D"/>
<path d="M24.0079 40.8789H19.6306C19.318 40.4769 19.0053 40.075 18.7373 39.6283C20.3453 40.4323 22.1319 40.8789 24.0079 40.8789Z" fill="#32096D"/>
<path d="M17.1299 17.2059H19.6311C19.3185 17.6079 19.0058 18.0099 18.7378 18.4566C18.1572 18.7246 17.6212 19.0372 17.1299 19.4392V17.2059Z" fill="#32096D"/>
<path d="M19.6311 40.8789H17.1299V38.6903C17.6212 39.0476 18.1572 39.3603 18.7378 39.673C19.0058 40.0749 19.3185 40.4769 19.6311 40.8789Z" fill="#32096D"/>
<path d="M18.7378 18.4565C17.7105 20.1092 17.1299 22.0745 17.1299 24.1291V19.3945C17.6212 19.0372 18.2018 18.7245 18.7378 18.4565Z" fill="#32096D"/>
<path d="M17.1299 33.9557C17.1299 36.055 17.7105 37.9756 18.7378 39.6282C18.1572 39.3602 17.6212 39.0476 17.1299 38.6456V33.9557Z" fill="#32096D"/>
<path d="M17.1296 38.6455V40.8341H13.4223C6.90116 40.8341 1.58594 35.5189 1.58594 28.9977C1.58594 25.7371 2.92591 22.7891 5.06986 20.6452C7.21382 18.5012 10.1618 17.1613 13.4223 17.1613H17.1296V19.3499C16.5936 19.7072 16.1023 20.1539 15.6556 20.6005C13.5117 22.7445 12.1717 25.6924 12.1717 28.953C12.1717 33.0176 14.137 36.5015 17.1296 38.6455Z" fill="#FF5A00"/>
<path d="M17.1299 33.9557V38.6903C14.1373 36.5463 12.172 33.0177 12.172 29.0871C12.172 25.8265 13.512 22.8786 15.6559 20.7346C16.1026 20.288 16.5939 19.8413 17.1299 19.484V24.2186V33.9557Z" fill="#FF9100"/>
<path d="M28.8316 25.871C27.7596 25.9157 27.2683 26.6304 27.2683 28.0597V35.9208H23.1144V28.0597C23.1144 24.2631 25.035 22.2978 28.8763 22.0745H29.0996C32.9408 22.2531 34.8615 24.2631 34.8615 28.0597V35.9208H30.7076V28.0597C30.7076 26.6304 30.1716 25.871 29.1443 25.871H28.8316Z" fill="white"/>
</svg>
