<svg width="270" height="182" viewBox="0 0 270 182" fill="none" xmlns="http://www.w3.org/2000/svg">
<path d="M210.193 9.46568L210.195 9.71226L210.441 9.7137L219.634 9.76747L219.72 20.5061L219.722 20.7528L219.969 20.7542L222.841 20.7701L223.094 20.7715L223.092 20.5181L222.979 6.19045L222.977 5.94388L222.73 5.94243L210.418 5.87023L210.165 5.86874L210.167 6.12219L210.193 9.46568Z" fill="#17C871" stroke="#17C871" stroke-width="0.5"/>
<path d="M219.966 161.195L219.72 161.196L219.718 161.443L219.633 172.181L210.44 172.235L210.194 172.236L210.192 172.483L210.165 175.826L210.163 176.08L210.417 176.078L222.729 176.006L222.976 176.004L222.978 175.758L223.091 161.43L223.093 161.177L222.839 161.178L219.966 161.195Z" fill="#17C871" stroke="#17C871" stroke-width="0.5"/>
<path d="M61.7564 172.483L61.7544 172.236L61.5078 172.235L52.3148 172.181L52.2292 161.442L52.2273 161.195L51.9806 161.194L49.1084 161.178L48.855 161.177L48.857 161.43L48.9702 175.758L48.9721 176.004L49.2187 176.006L61.5312 176.078L61.7847 176.079L61.7827 175.826L61.7564 172.483Z" fill="#17C871" stroke="#17C871" stroke-width="0.5"/>
<path d="M51.9819 20.7532L52.2284 20.7518L52.2304 20.5052L52.3153 9.7672L61.5081 9.71322L61.7547 9.71177L61.7567 9.46519L61.783 6.12214L61.785 5.86869L61.5315 5.87017L49.219 5.94238L48.9724 5.94382L48.9705 6.1904L48.8573 20.5181L48.8553 20.7715L49.1088 20.77L51.9819 20.7532Z" fill="#17C871" stroke="#17C871" stroke-width="0.5"/>
<path d="M122.8 17H111.04V22.88H122.8V17Z" fill="black"/>
<path d="M134.559 17H140.439V22.88H152.199V28.76H134.559V17Z" fill="black"/>
<path d="M158.08 17H163.96V81.6799H158.08V69.9199H152.2V75.7999H146.318V69.9199H140.44V64.0399H134.56V46.3999H128.68V34.64H111.04V28.76H122.8V22.88H128.68V28.76H134.56V34.64H152.2V40.5199H140.44V58.1599H146.318V52.2799H152.2V64.0399H158.08V46.3999H152.2V40.5199H158.08V17Z" fill="black"/>
<path d="M64.98 17C64.4388 17 64 17.4388 64 17.98V57.1799C64 57.7211 64.4388 58.1599 64.98 58.1599H104.18C104.721 58.1599 105.16 57.7211 105.16 57.1799V17.98C105.16 17.4388 104.721 17 104.18 17H64.98ZM99.2799 51.2999C99.2799 51.8412 98.8412 52.2799 98.2999 52.2799H70.86C70.3187 52.2799 69.88 51.8412 69.88 51.2999V23.86C69.88 23.3187 70.3187 22.88 70.86 22.88H98.2999C98.8412 22.88 99.2799 23.3187 99.2799 23.86V51.2999Z" fill="black"/>
<path d="M170.82 17C170.279 17 169.84 17.4388 169.84 17.98V57.1799C169.84 57.7211 170.279 58.1599 170.82 58.1599H210.02C210.561 58.1599 211 57.7211 211 57.1799V17.98C211 17.4388 210.561 17 210.02 17H170.82ZM205.12 51.2999C205.12 51.8412 204.681 52.2799 204.14 52.2799H176.7C176.159 52.2799 175.72 51.8412 175.72 51.2999V23.86C175.72 23.3187 176.159 22.88 176.7 22.88H204.14C204.681 22.88 205.12 23.3187 205.12 23.86V51.2999Z" fill="black"/>
<path d="M91.4417 28.7598H77.7217C76.6392 28.7598 75.7617 29.6373 75.7617 30.7198V44.4397C75.7617 45.5222 76.6392 46.3997 77.7217 46.3997H91.4417C92.5242 46.3997 93.4017 45.5222 93.4017 44.4397V30.7198C93.4017 29.6373 92.5242 28.7598 91.4417 28.7598Z" fill="black"/>
<path d="M197.282 28.7598H183.562C182.479 28.7598 181.602 29.6373 181.602 30.7198V44.4397C181.602 45.5222 182.479 46.3997 183.562 46.3997H197.282C198.364 46.3997 199.242 45.5222 199.242 44.4397V30.7198C199.242 29.6373 198.364 28.7598 197.282 28.7598Z" fill="black"/>
<path d="M111.04 40.52H122.8V52.28H116.92V46.4H111.04V40.52Z" fill="black"/>
<path d="M111.04 52.28H116.92V58.16H122.8V52.28H128.68V64.04H134.56V69.92H140.44V75.8H134.56V81.68H128.68V69.92H122.8V64.04H111.04V52.28Z" fill="black"/>
<path d="M105.158 64.04H93.3984V69.92H105.158V64.04Z" fill="black"/>
<path d="M187.482 64.04H181.602V69.92H187.482V64.04Z" fill="black"/>
<path d="M193.36 64.04H199.24V75.8H211V93.44H199.24V81.68H193.36V64.04Z" fill="black"/>
<path d="M211.001 64.04H205.121V69.92H211.001V64.04Z" fill="black"/>
<path d="M81.6389 69.9199H69.8789V75.7999H81.6389V69.9199Z" fill="black"/>
<path d="M93.3995 69.9199H87.5195V75.7999H93.3995V69.9199Z" fill="black"/>
<path d="M69.88 75.8H64V81.68H69.88V75.8Z" fill="black"/>
<path d="M105.161 75.7998H99.2812V81.6798H105.161V75.7998Z" fill="black"/>
<path d="M75.7589 81.6797H87.5189V93.4397H81.6389V99.3197H75.7589V93.4397H69.8789V87.5597H75.7589V81.6797Z" fill="black"/>
<path d="M99.2784 81.6797H93.3984V87.5597H99.2784V81.6797Z" fill="black"/>
<path d="M158.08 81.6799H152.2V87.5599H158.08V81.6799Z" fill="black"/>
<path d="M105.161 87.5596H99.2812V93.4396H105.161V87.5596Z" fill="black"/>
<path d="M69.88 93.4399H64V116.96H69.88V93.4399Z" fill="black"/>
<path d="M93.3995 93.4399H87.5195V99.3222H93.3995V93.4399Z" fill="black"/>
<path d="M87.5206 99.3198H81.6406V105.2H87.5206V99.3198Z" fill="black"/>
<path d="M105.161 99.3203H99.2812V105.2H105.161V99.3203Z" fill="black"/>
<path d="M111.04 99.3198H116.92V105.2H122.8V116.96H116.92V122.84H111.04V99.3198Z" fill="black"/>
<path d="M187.477 99.3198H175.72V105.2H187.477V99.3198Z" fill="black"/>
<path d="M210.998 99.3203H199.238V105.2H210.998V99.3203Z" fill="black"/>
<path d="M93.3995 105.2H87.5195V111.08H93.3995V105.2Z" fill="black"/>
<path d="M81.6417 111.08H75.7617V116.962H81.6417V111.08Z" fill="black"/>
<path d="M105.158 111.08H93.3984V116.962H105.158V111.08Z" fill="black"/>
<path d="M128.68 116.96H122.8V122.84H128.68V116.96Z" fill="black"/>
<path d="M211.001 116.96V111.08H199.241V105.2H187.481V111.08H163.961V105.2H169.841V99.32H175.721V93.44H187.481V99.32H193.361V81.68H187.481V75.8H181.601V81.68H175.721V75.8H181.601V69.92H175.721V64.04H169.841V81.68H163.961V99.32H152.201V87.56H146.319V99.32H140.439V81.68H134.559V93.44H128.679V81.68H111.039V87.56H116.919V99.32H122.801V105.2H128.681V99.32H134.561V105.2H128.681V116.96H134.561V122.84H140.441V111.08H146.321V122.84H152.201V116.96H158.081V122.84H152.201V128.72H146.319V146.36H134.561V152.24H146.319V158.12H134.561V164H163.961V158.12H158.081V152.24H152.201V134.6H158.081V140.48H163.961V146.36H169.841V140.48H187.481V146.36H193.361V140.48H199.241V134.6H193.361V122.84H187.481V116.96H211.001ZM158.081 111.08H152.201V105.2H158.081V111.08ZM181.601 134.6H163.961V116.96H181.601V134.6Z" fill="black"/>
<path d="M134.561 122.84H128.681V134.6H134.561V122.84Z" fill="black"/>
<path d="M175.722 122.84H169.84V128.722H175.722V122.84Z" fill="black"/>
<path d="M211.001 122.84H205.121V134.6H211.001V122.84Z" fill="black"/>
<path d="M64.98 122.84C64.4388 122.84 64 123.279 64 123.82V163.02C64 163.561 64.4388 164 64.98 164H104.18C104.721 164 105.16 163.561 105.16 163.02V123.82C105.16 123.279 104.721 122.84 104.18 122.84H64.98ZM99.2799 157.14C99.2799 157.681 98.8412 158.12 98.2999 158.12H70.86C70.3187 158.12 69.88 157.681 69.88 157.14V129.7C69.88 129.159 70.3187 128.72 70.86 128.72H98.2999C98.8412 128.72 99.2799 129.159 99.2799 129.7V157.14Z" fill="black"/>
<path d="M111.04 128.72H122.8V140.48H128.68V146.36H122.8V152.24H116.92V134.6H111.04V128.72Z" fill="black"/>
<path d="M91.4417 134.6H77.7217C76.6392 134.6 75.7617 135.477 75.7617 136.56V150.28C75.7617 151.362 76.6392 152.24 77.7217 152.24H91.4417C92.5242 152.24 93.4017 151.362 93.4017 150.28V136.56C93.4017 135.477 92.5242 134.6 91.4417 134.6Z" fill="black"/>
<path d="M140.439 134.6H134.559V140.48H140.439V134.6Z" fill="black"/>
<path d="M211.001 140.479H205.121V163.999H211.001V140.479Z" fill="black"/>
<path d="M163.96 146.359H158.078V152.239H163.96V146.359Z" fill="black"/>
<path d="M169.84 146.36H181.6V152.24H193.36V164H187.48V158.12H175.72V164H169.84V146.36Z" fill="black"/>
<path d="M199.24 146.36H193.36V152.24H199.24V146.36Z" fill="black"/>
<path d="M134.561 152.24H128.681V158.122H134.561V152.24Z" fill="black"/>
<path d="M122.798 158.12H116.918V164H122.798V158.12Z" fill="black"/>
<g filter="url(#filter0_d_102_4)">
<line x1="15" y1="55.5" x2="255.01" y2="55.5" stroke="#17C871" stroke-width="3"/>
</g>
<rect x="64" y="57" width="147" height="107" fill="#17C871" fill-opacity="0.6"/>
<circle cx="120.75" cy="103.5" r="2.75" fill="white"/>
<circle cx="134.5" cy="103.5" r="4.125" fill="white"/>
<circle cx="151" cy="103.5" r="5.5" fill="white"/>
<defs>
<filter id="filter0_d_102_4" x="0" y="43" width="270.01" height="33" filterUnits="userSpaceOnUse" color-interpolation-filters="sRGB">
<feFlood flood-opacity="0" result="BackgroundImageFix"/>
<feColorMatrix in="SourceAlpha" type="matrix" values="0 0 0 0 0 0 0 0 0 0 0 0 0 0 0 0 0 0 127 0" result="hardAlpha"/>
<feOffset dy="4"/>
<feGaussianBlur stdDeviation="7.5"/>
<feColorMatrix type="matrix" values="0 0 0 0 0.152941 0 0 0 0 0.427451 0 0 0 0 0.968627 0 0 0 0.05 0"/>
<feBlend mode="normal" in2="BackgroundImageFix" result="effect1_dropShadow_102_4"/>
<feBlend mode="normal" in="SourceGraphic" in2="effect1_dropShadow_102_4" result="shape"/>
</filter>
</defs>
</svg>
